<?xml version="1.0" encoding="utf-8"?>
<!-- Generator: Adobe Illustrator 22.0.1, SVG Export Plug-In . SVG Version: 6.00 Build 0)  -->
<svg version="1.1" id="Layer_1" xmlns="http://www.w3.org/2000/svg" xmlns:xlink="http://www.w3.org/1999/xlink" x="0px" y="0px"
	 viewBox="0 0 800 728.6" style="enable-background:new 0 0 800 728.6;" xml:space="preserve">
<style type="text/css">
	.st0{fill:#D8DCEF;}
	.st1{fill:#C7EFEE;}
	.st2{fill:#3ACBD8;}
	.st3{fill:#FFFFFF;}
	.st4{fill:#A5AFE6;}
	.st5{fill:none;}
	.st6{font-family:'OpenSans-Light';}
	.st7{font-size:204.7273px;}
	.st8{font-size:76.7727px;}
</style>
<g>
	
		<ellipse transform="matrix(0.8448 -0.5351 0.5351 0.8448 -217.9004 191.6837)" class="st0" cx="221.5" cy="471.4" rx="54.2" ry="54.2"/>
	
		<ellipse transform="matrix(1.987013e-02 -0.9998 0.9998 1.987013e-02 186.3976 1008.4682)" class="st0" cx="607.6" cy="409.2" rx="62.7" ry="62.7"/>
	
		<ellipse transform="matrix(0.9999 -1.150935e-02 1.150935e-02 0.9999 -1.6386 8.105)" class="st1" cx="703.4" cy="146.4" rx="90.3" ry="90.3"/>
	
		<ellipse transform="matrix(0.9918 -0.1281 0.1281 0.9918 -46.8841 49.456)" class="st1" cx="361.2" cy="389.4" rx="52.3" ry="52.3"/>
	
		<ellipse transform="matrix(0.9969 -7.845487e-02 7.845487e-02 0.9969 -46.368 11.2453)" class="st1" cx="119.9" cy="595.7" rx="64.8" ry="64.8"/>
	
		<ellipse transform="matrix(0.9099 -0.4147 0.4147 0.9099 -208.3365 239.1456)" class="st1" cx="446.5" cy="599.3" rx="98.3" ry="98.3"/>
	<g>
		<g>
			<g>
				<g>
					<path class="st2" d="M402.9,547.5c-17.2,0-30.7-5.5-39-10.2l-0.8-0.4l-0.3-50.2l2.4,1.6c6.2,4.1,19.1,11.1,36.5,11.4
						c18.3,0.2,31.7-7,38.1-11.4l2.4-1.6l0.3,50.2l-0.8,0.4c-8,4.5-21.1,10-38,10.2C403.5,547.5,403.2,547.5,402.9,547.5z
						 M366.2,535.1c8.2,4.5,21.1,9.5,37.6,9.3c15.7-0.2,28-5.1,35.7-9.3l-0.2-42.8c-7.4,4.5-20.4,10.6-37.5,10.3
						c-16.2-0.2-28.7-6-35.8-10.3L366.2,535.1z"/>
				</g>
				<g>
					<g>
						<path class="st2" d="M439.6,548.7l0-57.6c1.3-7.5,6.3-13.4,13-15.6l0.2-0.1c3.5-1.1,7.2-0.4,10.2,1.8c3,2.2,4.8,5.7,4.8,9.5
							v47l-2.3-1.4c-1.8-1.1-5.4-2.7-9.8-2.2c-5.8,0.7-10.8,5-13.2,11L439.6,548.7z M442.6,491.5v43.2c3.2-4.2,7.7-7,12.7-7.6
							c3.8-0.5,7.1,0.4,9.5,1.4v-41.8c0-2.8-1.3-5.3-3.5-7c-2.2-1.6-4.9-2.1-7.5-1.3l-0.2,0.1C447.9,480.2,443.8,485.2,442.6,491.5z
							"/>
					</g>
					<g>
						<path class="st2" d="M447.3,566.4c-0.1,0-0.2,0-0.3,0c-3.8-0.2-7-3-7.5-6.7c-0.3-2.5,0.6-5.1,3-8c3.5-4.2,8.2-7,13.5-10.1
							c7.7-4.4,8.8-10.9,8.9-10.9l3,0.5c-0.1,0.3-1.3,7.4-9.4,12.5c0.1,0.5,0.3,1,0.4,1.5c0.8,2.9,1.5,5.8,0.9,9.2
							c-0.7,3.7-2.7,7.1-5.6,9.3C452,565.5,449.6,566.4,447.3,566.4z M455.7,545.3c-4.3,2.5-8.1,5-10.9,8.4
							c-1.8,2.1-2.5,3.9-2.3,5.6c0.3,2.2,2.3,4,4.6,4.1c1.7,0.1,3.5-0.6,5.2-2c2.3-1.8,3.9-4.5,4.5-7.5c0.5-2.7-0.2-5.2-0.9-7.8
							C455.8,545.8,455.8,545.6,455.7,545.3z"/>
					</g>
					<g>
						<rect x="439.6" y="534.9" class="st2" width="3.1" height="23.7"/>
					</g>
				</g>
				<g>
					<g>
						<path class="st2" d="M465.7,559.4l-0.9-66.1l0-0.1c1-8.3,5.3-15,11.1-17.5l0.1,0c2.7-1.1,5.5-0.8,8,0.9
							c3.4,2.3,5.6,6.7,5.6,11.5l0.7,53.2l-2.5-1.9c-1.5-1.2-4.6-3-8.2-2.4c-4.9,0.8-9.1,5.6-11.1,12.5L465.7,559.4z M467.9,493.4
							l0.6,48.4c2.7-4.4,6.4-7.3,10.6-7.9c3.2-0.5,6,0.4,8.1,1.4l-0.6-47.2c0-3.8-1.7-7.3-4.3-9c-1.1-0.8-2.9-1.5-5.1-0.6l-0.7-1.3
							l0.6,1.4C472.4,480.5,468.7,486.3,467.9,493.4z"/>
					</g>
					<g>
						<path class="st2" d="M473.2,576.1c-2.5,0-4.8-1-6-2.7c-3.5-4.7,0.1-11.1,2.7-14.2c2.8-3.3,6.6-6.3,9.9-8.7
							c6.6-5,7.5-12.4,7.5-12.5l3,0.3c0,0.3-1,8.3-8,14c0.1,0.7,0.3,1.4,0.4,2.1c1.1,5.3,2.4,11.4-0.5,16.4c-1.7,3-4.9,5-8.4,5.3
							C473.6,576.1,473.4,576.1,473.2,576.1z M479.6,554.3c-2.6,2-5.3,4.4-7.5,6.8c-2.2,2.5-4.7,7.4-2.5,10.3c0.9,1.2,2.7,1.6,4,1.5
							c2.4-0.2,4.8-1.7,6-3.8c2.3-4,1.1-9.4,0.1-14.2C479.7,554.8,479.6,554.6,479.6,554.3z"/>
					</g>
					<g>
						
							<rect x="465.8" y="542.5" transform="matrix(0.9999 -1.301403e-02 1.301403e-02 0.9999 -7.1947 6.1284)" class="st2" width="3.1" height="26.8"/>
					</g>
				</g>
				<g>
					<g>
						<path class="st2" d="M506.6,566.4c-1.9,0-3.7-0.5-5.4-1.6c-3.3-2.1-5.5-6.1-5.9-10.6c-0.5-5.8,1.8-10.8,4-15.6
							c1.5-3.3,3-6.4,3.6-9.9c0.5-2.9-0.6-6.2-2.6-7.7c-1.4-1-3-1.1-4.9-0.2c-4.1,2-4.7,9.9-4.8,12.5l-3-0.2
							c0.4-5.3,1.4-12.6,6.5-15.1c2.9-1.4,5.8-1.2,8.1,0.5c2.9,2.2,4.4,6.6,3.7,10.6c-0.7,3.8-2.3,7.3-3.8,10.6
							c-2.1,4.6-4.1,9-3.7,14c0.3,3.6,2,6.7,4.5,8.3c2,1.3,4.3,1.5,6.5,0.5c2.5-1.2,4.4-3.6,4.8-6.5c0.5-3.7-1.4-8.8-3.1-13.4
							c-1.9-5.2-3.6-9.7-2.2-12.7v-33.4c0-3.6,3-6.6,6.6-6.6c3.6,0,6.6,3,6.6,6.6v41.1l-2.8-4.6c-0.6-1-2.9-4-4.9-4c0,0,0,0,0,0
							c-0.9,0-1.8,0.7-2.7,2.2c-1,1.7,0.7,6.4,2.2,10.5c1.8,4.9,3.9,10.4,3.2,14.9c-0.5,3.9-3,7.2-6.5,8.8
							C509.4,566.1,508,566.4,506.6,566.4z M514.5,526c1.8,0,3.4,1,4.7,2.1v-31.4c0-2-1.6-3.6-3.6-3.6c-2,0-3.6,1.6-3.6,3.6v30
							C512.8,526.2,513.6,526,514.5,526C514.4,526,514.5,526,514.5,526z"/>
					</g>
					<g>
						<rect x="495.1" y="528.6" class="st2" width="3.1" height="19.4"/>
					</g>
					<g>
						<path class="st2" d="M490.7,533.2h-3.1v-45.8c0-5.2,4.2-9.4,9.4-9.4c5.2,0,9.4,4.2,9.4,9.4v37.2c0.2,0,0.4-0.1,0.6-0.1
							c0.8-0.3,1.5-1.3,2-2.8l2.9,1c-0.8,2.4-2.1,4-3.7,4.7c-2,0.8-3.8,0-4-0.1l-0.8-0.4v-39.3c0-3.5-2.8-6.3-6.3-6.3
							c-3.5,0-6.3,2.8-6.3,6.3V533.2z"/>
					</g>
				</g>
				<g>
					<rect x="495.1" y="520.3" class="st2" width="3.1" height="33.3"/>
				</g>
			</g>
			<g>
				<path class="st2" d="M375,521.4c-0.8,0-1.5-0.7-1.5-1.5v-23.1c0-0.8,0.7-1.5,1.5-1.5c0.8,0,1.5,0.7,1.5,1.5v23.1
					C376.5,520.7,375.8,521.4,375,521.4z"/>
			</g>
			<g>
				<path class="st2" d="M411,545.4c-0.8,0-1.5-0.7-1.5-1.5v-23.1c0-0.8,0.7-1.5,1.5-1.5c0.8,0,1.5,0.7,1.5,1.5v23.1
					C412.6,544.7,411.9,545.4,411,545.4z"/>
			</g>
			<g>
				<path class="st2" d="M428.6,542.6c-0.8,0-1.5-0.7-1.5-1.5v-33.3c0-0.8,0.7-1.5,1.5-1.5c0.8,0,1.5,0.7,1.5,1.5v33.3
					C430.1,541.9,429.5,542.6,428.6,542.6z"/>
			</g>
			<g>
				<path class="st2" d="M453.6,501.9c-0.8,0-1.5-0.7-1.5-1.5v-23.1c0-0.8,0.7-1.5,1.5-1.5c0.8,0,1.5,0.7,1.5,1.5v23.1
					C455.1,501.2,454.4,501.9,453.6,501.9z"/>
			</g>
		</g>
		<g>
			<g>
				<g>
					<path class="st3" d="M181.9,492.1c-3.1,6.7-4.8,15.4-4.8,24.3c0,9,1.7,17.6,4.8,24.3c2.8,6.1,6.4,9.8,9.6,9.8h2.6
						c2.6,0,4.5-1.6,5.1-3.9h47.6c3.6,0,6.5-2.9,6.5-6.5v-47.4c0-3.6-2.9-6.5-6.5-6.5l-47.6,0c-0.5-2.3-2.5-3.9-5.1-3.9h-2.6
						C188.3,482.3,184.8,486,181.9,492.1L181.9,492.1z"/>
				</g>
				<g>
					<g>
						<g>
							<path class="st2" d="M181.9,492.1c-3.1,6.7-4.8,15.4-4.8,24.3c0,9,1.7,17.6,4.8,24.3c2.8,6.1,6.4,9.8,9.6,9.8h2.6
								c2.6,0,4.5-1.6,5.1-3.9h47.6c3.6,0,6.5-2.9,6.5-6.5v-47.4c0-3.6-2.9-6.5-6.5-6.5l-47.6,0c-0.5-2.3-2.5-3.9-5.1-3.9h-2.6
								C188.3,482.3,184.8,486,181.9,492.1L181.9,492.1z M194.2,484.8c0.5,0,1,0.1,1.4,0.3c-2.6,0.7-5.4,3.4-7.8,7.7
								c-0.3,0.6-0.1,1.3,0.5,1.7c0.6,0.3,1.3,0.1,1.7-0.5c2.7-4.8,5.3-6.6,6.8-6.6h0.1c0,0,0,0.1,0,0.1c0,0.7,0.6,1.2,1.2,1.2h48.7
								c2.2,0,4,1.8,4,4v47.4c0,2.2-1.8,4-4,4h-48.7c-0.7,0-1.2,0.6-1.2,1.2c0,0,0,0.1,0,0.1h-0.1c-1.1,0-2.5-0.9-3.9-2.4
								c-1.7-1.8-3.2-4.3-4.5-7.4c-0.3-0.6-1-0.9-1.6-0.7c-0.6,0.3-0.9,1-0.7,1.6c2.6,6.1,6.1,10.3,9.4,11.1
								c-0.4,0.2-0.9,0.3-1.4,0.3h-2.6c-0.9,0-2.1-0.7-3.3-2c-1.4-1.5-2.8-3.7-4.1-6.4c-2.9-6.4-4.6-14.7-4.6-23.3
								c0-8.6,1.6-16.9,4.6-23.3c1.2-2.7,2.6-4.9,4.1-6.4c1.2-1.3,2.4-2,3.3-2H194.2z M194.2,484.8"/>
						</g>
					</g>
					<g>
						<path class="st2" d="M184.8,504.7c-0.7-0.1-1.3,0.3-1.4,1c-0.6,3.4-1,7.1-1,10.8c0,5.2,0.6,10.2,1.9,14.8
							c0.2,0.7,0.9,1,1.5,0.9c0.5-0.2,0.9-0.6,0.9-1.2c0-0.1,0-0.2,0-0.3c-1.2-4.4-1.8-9.2-1.8-14.2c0-3.5,0.3-7,0.9-10.3
							C185.9,505.5,185.5,504.8,184.8,504.7L184.8,504.7z M184.8,504.7"/>
					</g>
					<g>
						<path class="st2" d="M187.2,496.9c-0.6-0.2-1.3,0.1-1.6,0.7c-0.3,0.9-0.6,1.8-0.9,2.7c-0.2,0.7,0.2,1.3,0.8,1.5
							c0.7,0.2,1.3-0.2,1.5-0.8c0.3-0.9,0.6-1.7,0.9-2.6c0.1-0.1,0.1-0.3,0.1-0.4C188,497.5,187.7,497,187.2,496.9L187.2,496.9z
							 M187.2,496.9"/>
					</g>
					<g>
						<path class="st2" d="M211.2,529.6c0-2.1-1.7-3.9-3.9-3.9c-2.1,0-3.9,1.7-3.9,3.9s1.7,3.9,3.9,3.9
							C209.5,533.5,211.2,531.7,211.2,529.6L211.2,529.6z M205.9,529.6c0-0.8,0.6-1.4,1.4-1.4c0.8,0,1.4,0.6,1.4,1.4
							s-0.6,1.4-1.4,1.4C206.6,531,205.9,530.4,205.9,529.6L205.9,529.6z M205.9,529.6"/>
					</g>
					<g>
						<path class="st2" d="M219.2,524.4c-0.7,0-1.2,0.6-1.2,1.2v0c0,0.7,0.6,1.2,1.2,1.2c0.7,0,1.2-0.6,1.2-1.2
							C220.4,525,219.9,524.4,219.2,524.4L219.2,524.4z M219.2,524.4"/>
					</g>
					<g>
						<path class="st2" d="M208.7,513.8c0,0.7,0.6,1.2,1.2,1.2c0.7,0,1.2-0.6,1.2-1.2c0-0.7-0.6-1.2-1.2-1.2
							C209.3,512.6,208.7,513.1,208.7,513.8L208.7,513.8z M208.7,513.8"/>
					</g>
					<g>
						<path class="st2" d="M216.6,499.3L216.6,499.3c0,0.7,0.6,1.2,1.2,1.2c0.7,0,1.2-0.6,1.2-1.2c0-0.7-0.6-1.2-1.2-1.2
							C217.2,498.1,216.6,498.7,216.6,499.3L216.6,499.3z M216.6,499.3"/>
					</g>
					<g>
						<path class="st2" d="M231.1,519.1L231.1,519.1c0,0.7,0.6,1.2,1.2,1.2c0.7,0,1.2-0.6,1.2-1.2c0-0.7-0.6-1.2-1.2-1.2
							C231.7,517.8,231.1,518.4,231.1,519.1L231.1,519.1z M231.1,519.1"/>
					</g>
					<g>
						<path class="st2" d="M228.4,533.6c-0.7,0-1.2,0.6-1.2,1.2v0c0,0.7,0.6,1.2,1.2,1.2c0.7,0,1.2-0.6,1.2-1.2
							C229.6,534.2,229.1,533.6,228.4,533.6L228.4,533.6z M228.4,533.6"/>
					</g>
					<g>
						<path class="st2" d="M192.9,519.1L192.9,519.1c0,0.7,0.6,1.2,1.2,1.2c0.7,0,1.2-0.6,1.2-1.2c0-0.7-0.6-1.2-1.2-1.2
							C193.5,517.8,192.9,518.4,192.9,519.1L192.9,519.1z M192.9,519.1"/>
					</g>
					<g>
						<path class="st2" d="M200.8,496.7L200.8,496.7c0,0.7,0.6,1.2,1.2,1.2c0.7,0,1.2-0.6,1.2-1.2c0-0.7-0.6-1.2-1.2-1.2
							C201.4,495.5,200.8,496,200.8,496.7L200.8,496.7z M200.8,496.7"/>
					</g>
					<g>
						<path class="st2" d="M210,537.5L210,537.5c0,0.7,0.6,1.2,1.2,1.2c0.7,0,1.2-0.6,1.2-1.2c0-0.7-0.6-1.2-1.2-1.2
							C210.6,536.3,210,536.8,210,537.5L210,537.5z M210,537.5"/>
					</g>
					<g>
						<path class="st2" d="M241.6,524.3L241.6,524.3c0,0.7,0.6,1.2,1.2,1.2c0.7,0,1.2-0.6,1.2-1.2c0-0.7-0.6-1.2-1.2-1.2
							C242.2,523.1,241.6,523.7,241.6,524.3L241.6,524.3z M241.6,524.3"/>
					</g>
					<g>
						<path class="st2" d="M199.4,533.6c0-0.7-0.6-1.2-1.2-1.2c-0.7,0-1.2,0.6-1.2,1.2v0c0,0.7,0.6,1.2,1.2,1.2
							C198.8,534.8,199.4,534.2,199.4,533.6L199.4,533.6z M199.4,533.6"/>
					</g>
					<g>
						<path class="st2" d="M229.7,495.3c0.7,0,1.2-0.6,1.2-1.2c0-0.7-0.6-1.2-1.2-1.2c-0.7,0-1.2,0.6-1.2,1.2v0
							C228.5,494.8,229,495.3,229.7,495.3L229.7,495.3z M229.7,495.3"/>
					</g>
					<g>
						<path class="st2" d="M236.4,502c0,2.1,1.7,3.9,3.9,3.9c2.1,0,3.9-1.7,3.9-3.9c0-2.1-1.7-3.9-3.9-3.9
							C238.1,498.1,236.4,499.8,236.4,502L236.4,502z M241.6,502c0,0.8-0.6,1.4-1.4,1.4c-0.8,0-1.4-0.6-1.4-1.4
							c0-0.8,0.6-1.4,1.4-1.4C241,500.6,241.6,501.2,241.6,502L241.6,502z M241.6,502"/>
					</g>
					<g>
						<path class="st2" d="M233.7,530.9c0,2.1,1.7,3.9,3.9,3.9c2.1,0,3.9-1.7,3.9-3.9c0-2.1-1.7-3.9-3.9-3.9
							C235.5,527.1,233.7,528.8,233.7,530.9L233.7,530.9z M239,530.9c0,0.8-0.6,1.4-1.4,1.4s-1.4-0.6-1.4-1.4c0-0.8,0.6-1.4,1.4-1.4
							S239,530.2,239,530.9L239,530.9z M239,530.9"/>
					</g>
					<g>
						<path class="st2" d="M219.3,512.5c0,2.1,1.7,3.9,3.9,3.9c2.1,0,3.9-1.7,3.9-3.9c0-2.1-1.7-3.9-3.9-3.9
							C221,508.6,219.3,510.4,219.3,512.5L219.3,512.5z M224.5,512.5c0,0.8-0.6,1.4-1.4,1.4c-0.8,0-1.4-0.6-1.4-1.4
							c0-0.8,0.6-1.4,1.4-1.4C223.9,511.1,224.5,511.7,224.5,512.5L224.5,512.5z M224.5,512.5"/>
					</g>
					<g>
						<path class="st2" d="M202.1,503.4c-2.1,0-3.9,1.7-3.9,3.9c0,2.1,1.7,3.9,3.9,3.9c2.1,0,3.9-1.7,3.9-3.9
							C205.9,505.1,204.2,503.4,202.1,503.4L202.1,503.4z M203.5,507.2c0,0.8-0.6,1.4-1.4,1.4c-0.8,0-1.4-0.6-1.4-1.4
							c0-0.8,0.6-1.4,1.4-1.4C202.8,505.8,203.5,506.5,203.5,507.2L203.5,507.2z M203.5,507.2"/>
					</g>
				</g>
				<g>
					<path class="st2" d="M194.2,551.3h-2.6c-3.6,0-7.3-3.7-10.3-10.3c-3.1-6.8-4.9-15.6-4.9-24.6c0-9.1,1.7-17.8,4.9-24.6l0,0
						c3-6.5,6.8-10.3,10.3-10.3h2.6c2.7,0,4.9,1.6,5.6,3.9h47c4,0,7.3,3.3,7.3,7.3l0,47.4c0,4-3.3,7.3-7.3,7.3h-47
						C199,549.8,196.8,551.3,194.2,551.3z M182.6,492.4c-3,6.6-4.7,15.1-4.7,24c0,8.9,1.7,17.4,4.7,24c2.7,5.8,6.1,9.4,8.9,9.4h2.6
						c2.2,0,3.9-1.3,4.3-3.3l0.1-0.6h48.2c3.2,0,5.7-2.6,5.7-5.7l0-47.4c0-3.2-2.6-5.7-5.7-5.7h-48.2l-0.1-0.6
						c-0.4-2-2.1-3.3-4.3-3.3h-2.6C188.7,483.1,185.3,486.7,182.6,492.4L182.6,492.4z"/>
				</g>
			</g>
			<g>
				<path class="st3" d="M195,475c-0.5-1.9-1.9-3.4-3.6-4.3l-13.2-6.8c-2.1-1.1-4.5-1.5-6.9-1.2c-4.7,0.6-13.1,1.7-16.7,1.5
					l-6.6-2.6l0.2-0.4c0.3-0.7,0.3-1.5,0-2.1s-0.8-1.2-1.5-1.5l-6.2-2.5c-1.4-0.6-3.1,0.1-3.6,1.6l-0.7,1.6
					c-0.2,0.6,0.1,1.3,0.7,1.5c0.1,0,0.2,0,0.3,0l-1.9,4.9c-0.1-0.1-0.2-0.1-0.3-0.2c-0.6-0.2-1.3,0.1-1.5,0.7l-5.5,13.9
					c-0.3,0.7-0.3,1.5,0,2.1c0.3,0.7,0.8,1.2,1.5,1.5l6.2,2.5c0.7,0.3,1.4,0.3,2.1,0l0.1,0l0-0.1c0.7-0.3,1.2-0.8,1.5-1.5l0.2-0.4
					l1,0.4c0.8,0.3,1.6,0.9,2.1,1.6c0,0,0,0,0,0l6.1,6.8c2.1,2.3,4.7,3.9,7.7,4.7l6.7,1.8l15.1,6c0,0,0,0,0,0.1c1.5,0.1,5,3.8,8-2.9
					c0.1-0.8-0.1-1.7-0.4-2.7c-1.4-3.7-5.6-7.9-9.6-9.5c-2.5-1-5.4-2.2-7-2.8c-0.5-0.2-0.9-0.6-1.1-1.1l0,0c-0.3-0.7,0-2.1,0.7-2.7
					l10.6-4.6l4.4,2.3l3.1,4.7c2.4,0.2,2.9-1.9,5.3-1.6c1.9,0.3,3.8,0.4,5.7,0.6C197,481.5,195.4,476.2,195,475z M130.2,480.5
					c-0.2-0.1-0.2-0.2-0.2-0.2c0-0.1-0.1-0.2,0-0.3C129.9,480,130.1,480.4,130.2,480.5z"/>
			</g>
			<g>
				<path class="st2" d="M178.1,504.5c1.5,0.1,5,3.8,8-2.9c0.1-0.8-0.1-1.7-0.4-2.7c-1.4-3.7-5.6-7.9-9.6-9.5c-2.5-1-5.4-2.2-7-2.8
					c-0.5-0.2-0.9-0.6-1.1-1.1l0,0c-0.3-0.7,0-2.1,0.7-2.7l10.6-4.6l4.4,2.3l3.1,4.7c2.4,0.2,2.9-1.9,5.3-1.6
					c1.9,0.3,3.8,0.4,5.7,0.6c-0.8-2.7-2.4-7.9-2.7-9.1c-0.5-1.9-1.9-3.4-3.6-4.3l-13.2-6.8c-2.1-1.1-4.5-1.5-6.9-1.2
					c-4.7,0.6-13.1,1.7-16.7,1.5l-6.6-2.6l0.2-0.4c0.3-0.7,0.3-1.5,0-2.1s-0.8-1.2-1.5-1.5l-6.2-2.5c-1.4-0.6-3.1,0.1-3.6,1.6
					l-0.7,1.6c-0.2,0.6,0.1,1.3,0.7,1.5c0.6,0.2,1.3-0.1,1.5-0.7l0.7-1.6c0.1-0.2,0.2-0.2,0.2-0.2c0.1,0,0.2-0.1,0.3,0l6.2,2.5
					c0.2,0.1,0.2,0.2,0.2,0.2c0,0.1,0.1,0.2,0,0.3l-0.6,1.5c0,0,0,0,0,0l-3.9,9.7l-4.5,11.2c-0.1,0.2-0.2,0.2-0.2,0.2
					c-0.1,0-0.2,0.1-0.3,0l-6.2-2.5c-0.2-0.1-0.2-0.2-0.2-0.2c0-0.1-0.1-0.2,0-0.3l5.5-13.9c0.2-0.6-0.1-1.3-0.7-1.5
					c-0.6-0.2-1.3,0.1-1.5,0.7l-5.5,13.9c-0.3,0.7-0.3,1.5,0,2.1c0.3,0.7,0.8,1.2,1.5,1.5l6.2,2.5c0.7,0.3,1.5,0.3,2.1,0
					c0.7-0.3,1.2-0.8,1.5-1.5l0.2-0.4l1,0.4c0.8,0.3,1.6,0.9,2.1,1.6c0,0,0,0,0,0l6.1,6.8c2.1,2.3,4.7,3.9,7.7,4.7l6.7,1.8
					L178.1,504.5C178.1,504.4,178.1,504.4,178.1,504.5z M171.3,497.5l-0.6,1.4l-6.9-2.8c0,0-0.1,0-0.1,0l-6.8-1.8
					c-2.5-0.7-4.8-2.1-6.6-4l-6-6.7c-0.8-1-1.9-1.8-3.1-2.2l-1-0.4l3.4-8.6l3.4-8.6l6.8,2.7c0.1,0,0.2,0.1,0.3,0.1
					c3.8,0.3,12.5-0.8,17.4-1.5c1.9-0.3,3.8,0.1,5.5,0.9l13.2,6.8c1.2,0.6,2,1.6,2.4,2.9c0.3,1.1,1.5,3.9,2.3,6.7
					c-2.4-0.9-4.6-0.9-7.3,0.4l-2.4-3.8c-0.1-0.2-0.3-0.3-0.5-0.4l-5.2-2.7c-0.3-0.2-0.7-0.2-1,0l-11.3,4.8c-0.1,0-0.2,0.1-0.3,0.2
					c-1.6,1.2-2.3,3.8-1.5,5.6l0,0c0.5,1.1,1.3,1.9,2.4,2.3c1.6,0.6,4.5,1.8,7,2.8c3.4,1.4,7.1,5,8.2,8.1c0.3,0.7,0.5,1.7,0.1,2.4
					c0,0,0,0.1-0.1,0.1c-0.1,0.3-0.5,1.2-2,0.9c0.7-2.7-0.6-5.5-3.3-6.5l-2.5-1c-0.8-0.3-1.8-0.3-2.6,0
					C172.3,496,171.6,496.7,171.3,497.5z M173.5,498.4c0.1-0.3,0.3-0.5,0.6-0.6c0.3-0.1,0.5-0.1,0.8,0l2.5,1
					c0.8,0.3,1.4,0.9,1.7,1.7c0.3,0.6,0.3,1.2,0.2,1.9l-6.4-2.5L173.5,498.4z"/>
			</g>
		</g>
		<g>
			<path class="st4" d="M233.4,677.2H34.8c-0.8,0-1.5-0.7-1.5-1.5c0-0.8,0.7-1.5,1.5-1.5h198.5c0.8,0,1.5,0.7,1.5,1.5
				C234.9,676.5,234.2,677.2,233.4,677.2z"/>
		</g>
		<g>
			<path class="st4" d="M441.6,677.2h-170c-0.8,0-1.5-0.7-1.5-1.5c0-0.8,0.7-1.5,1.5-1.5h170c0.8,0,1.5,0.7,1.5,1.5
				C443.1,676.5,442.4,677.2,441.6,677.2z"/>
		</g>
		<g>
			<path class="st4" d="M703.3,677.2H453.8c-0.8,0-1.5-0.7-1.5-1.5c0-0.8,0.7-1.5,1.5-1.5h249.5c0.8,0,1.5,0.7,1.5,1.5
				C704.8,676.5,704.2,677.2,703.3,677.2z"/>
		</g>
		<g>
			<path class="st2" d="M129.7,526.5h-5.4v-3.1c0-2.6-2.1-4.7-4.7-4.7h-3.3v-2.6c0-0.8-0.7-1.5-1.5-1.5l0,0c-0.8,0-1.5,0.7-1.5,1.5
				v2.6h-8.5v-15c0-2.3,1.8-4.3,4.1-4.4c2.4-0.1,4.4,1.9,4.4,4.3v3.6c0,0.8,0.7,1.5,1.5,1.5l0,0c0.8,0,1.5-0.7,1.5-1.5v-3.4
				c0-4-3.2-7.4-7.2-7.5c-4.1-0.1-7.5,3.2-7.5,7.3v11.9c-1.2-0.9-2.7-1.4-4.3-1.4c-2.4,0-4.5,1.1-5.8,2.9c-1.3-1.7-3.4-2.9-5.8-2.9
				c-1.6,0-3.1,0.5-4.3,1.4v-11.7c0-4-3.2-7.4-7.2-7.5c-4.1-0.1-7.5,3.2-7.5,7.3v15.1h-7.6c-0.7-1.4-2.2-2.4-3.9-2.4
				c-1.3,0-2.5,0.6-3.3,1.5c-2.4-2-5.4-3.1-8.5-3.1c-7.4,0-13.3,6-13.3,13.3c0,7.4,6,13.3,13.3,13.3c3.1,0,6.2-1.1,8.5-3.1
				c0.8,0.9,2,1.5,3.3,1.5c1.7,0,3.2-1,3.9-2.4h7.9c1.9,11.8,12.1,20.9,24.4,20.9c4.6,0,9.1-1.3,12.9-3.6c0.8-0.5,1-1.7,0.3-2.4l0,0
				c-0.5-0.5-1.3-0.6-1.9-0.2c-3.3,2-7.1,3.1-11.2,3.2c-12,0.1-21.8-9.9-21.8-21.9v-10.3h20.5c2.3,0,4.3,1.8,4.4,4.1
				c0.1,2.4-1.9,4.4-4.3,4.4H76c-0.7,0-1.4,0.5-1.5,1.2c-0.2,0.9,0.3,1.7,1.2,1.9c0,0,2.6,0.5,5.1,2.1c3.1,1.9,4.7,4.4,4.7,7.4
				c0,0.8,0.6,1.5,1.5,1.6c0.9,0,1.6-0.7,1.6-1.5c0-1.9-0.4-3.6-1.3-5.2c1.8-0.3,3.4-1.3,4.5-2.7c1.3,1.7,3.4,2.9,5.8,2.9
				c1.7,0,3.2-0.6,4.5-1.5H113c-0.6,3.4-2,6.4-3.9,9.1c-0.4,0.6-0.4,1.4,0.1,1.9c0,0,0,0,0,0c0.7,0.7,1.7,0.6,2.3-0.2
				c2.4-3.2,3.9-6.9,4.5-10.8h3.6c2.6,0,4.7-2.1,4.7-4.7v-3.1h5.4c1,0,1.7,0.8,1.7,1.7v37c0,2.6-2.1,4.8-4.8,4.8l-68.2,0
				c-4.3,0-7.9,3.4-8,7.6c-0.1,4.4,3.5,8,7.8,8h145.2c0.7,2.3,2.8,4.1,5.4,4.1l7.7,0c0.8,0,1.5-0.7,1.5-1.5v-2.5h2.3
				c0.8,0,1.6-0.6,1.6-1.5c0-0.9-0.7-1.6-1.5-1.6h-2.3v-2.5c0-0.8-0.7-1.5-1.5-1.5h-7.7c-2.6,0-4.7,1.7-5.4,4.1H58.4
				c-2.7,0-4.9-2.2-4.9-4.9c0-2.6,2.2-4.7,4.8-4.7l68.4,0c4.3,0,7.8-3.5,7.8-7.7h0v-37.1C134.5,528.6,132.3,526.5,129.7,526.5z
				 M51,535.1c-1.9,2-4.6,3.2-7.4,3.2c-5.7,0-10.3-4.6-10.3-10.3c0-5.7,4.6-10.3,10.3-10.3c2.8,0,5.5,1.2,7.4,3.2V535.1z
				 M56.7,535.3c0,0.7-0.6,1.3-1.3,1.3c-0.7,0-1.3-0.6-1.3-1.3v-14.7c0-0.7,0.6-1.3,1.3-1.3c0.7,0,1.3,0.6,1.3,1.3V535.3z
				 M66.9,534.2l-7.1,0v-12.4h7.1V534.2z M78.5,519.8H70v-16.1c0-2.4,1.9-4.3,4.3-4.3c2.4,0,4.3,1.9,4.3,4.3V519.8z M81.9,519.8
				c0.7-1.5,2.2-2.5,3.9-2.5c1.7,0,3.2,1,3.9,2.5H81.9z M85.8,535.7c-0.4,0-0.8-0.1-1.2-0.2c-0.4-0.4-0.9-0.8-1.5-1.2h5.7
				C88.1,535.2,87,535.7,85.8,535.7z M101.7,531.5c0,2.4-1.9,4.3-4.3,4.3c-1.6,0-2.9-0.8-3.7-2.1c2.4-1.2,4.1-3.7,4.1-6.6
				c0-3-1.9-5.7-4.5-6.8c0.5-1.8,2.2-3.1,4.1-3.1c2.4,0,4.3,1.9,4.3,4.3V531.5z M121.3,532.6c0,0.9-0.7,1.6-1.6,1.6h-15.4
				c0.3-0.8,0.5-1.8,0.5-2.7v-9.7h14.9c0.9,0,1.6,0.7,1.6,1.6V532.6z M208.8,584.7h6.2v5.1h-6.2c-1.4,0-2.5-1.1-2.5-2.5
				C206.3,585.8,207.4,584.7,208.8,584.7z"/>
		</g>
		<g>
			<g>
				<path class="st3" d="M383.9,465H238.6c-9.7,0-17.6,7.9-17.6,17.6v82.6h10.6v-82.6c0-3.8,3.1-7,7-7h145.3c3.8,0,7,3.1,7,7v82.6
					h10.6v-82.6C401.5,472.9,393.6,465,383.9,465z"/>
			</g>
			<g>
				<path class="st4" d="M383.9,601H238.6c-10.5,0-19.1-8.6-19.1-19.1v-99.3c0-10.5,8.6-19.1,19.1-19.1h145.3
					c10.5,0,19.1,8.6,19.1,19.1v99.3C403,592.4,394.4,601,383.9,601z M238.6,466.5c-8.8,0-16,7.2-16,16v99.3c0,8.8,7.2,16,16,16
					h145.3c8.8,0,16-7.2,16-16v-99.3c0-8.8-7.2-16-16-16H238.6z"/>
			</g>
			<g>
				<rect x="221.7" y="563.9" class="st4" width="179.1" height="3.1"/>
			</g>
			<g>
				<path class="st4" d="M311.3,591.2c-4.5,0-8.2-3.7-8.2-8.2c0-4.5,3.7-8.2,8.2-8.2s8.2,3.7,8.2,8.2
					C319.4,587.6,315.8,591.2,311.3,591.2z M311.3,578c-2.8,0-5.1,2.3-5.1,5.1c0,2.8,2.3,5.1,5.1,5.1c2.8,0,5.1-2.3,5.1-5.1
					C316.4,580.3,314.1,578,311.3,578z"/>
			</g>
			<g>
				<path class="st4" d="M344,636.4h-65.5c-0.5,0-1-0.3-1.3-0.8c-0.3-0.5-0.3-1,0-1.5l19.5-35.4c0.3-0.5,0.8-0.8,1.3-0.8h26.5
					c0.6,0,1.1,0.3,1.3,0.8l19.5,35.4c0.3,0.5,0.3,1,0,1.5C345,636.1,344.5,636.4,344,636.4z M281.1,633.3h60.3L323.6,601h-24.7
					L281.1,633.3z"/>
			</g>
			<g>
				<path class="st4" d="M392.4,566.9H230.1v-84.3c0-4.7,3.8-8.5,8.5-8.5h145.3c4.7,0,8.5,3.8,8.5,8.5V566.9z M233.2,563.9h156.2
					v-81.3c0-3-2.4-5.4-5.4-5.4H238.6c-3,0-5.4,2.4-5.4,5.4V563.9z"/>
			</g>
		</g>
		<g>
			<g>
				<path class="st4" d="M26.2,498.9c-0.4,0.4-0.4,1.1,0,1.5c0.4,0.4,1.1,0.4,1.5,0c6.4-6.4,16.9-6.4,23.4,0c0.4,0.4,1.1,0.4,1.5,0
					c0.2-0.2,0.3-0.5,0.3-0.7c0-0.3-0.1-0.5-0.3-0.7C45.3,491.6,33.5,491.6,26.2,498.9L26.2,498.9z M26.2,498.9"/>
			</g>
			<g>
				<path class="st4" d="M29.3,502.6c-0.4,0.4-0.4,1.1,0,1.5c0.4,0.4,1.1,0.4,1.5,0c4.4-4.4,11.7-4.4,16.1,0c0.4,0.4,1.1,0.4,1.5,0
					c0.2-0.2,0.3-0.5,0.3-0.7c0-0.3-0.1-0.5-0.3-0.7C43.1,497.3,34.6,497.3,29.3,502.6L29.3,502.6z M29.3,502.6"/>
			</g>
			<g>
				<path class="st4" d="M21.1,495.9c-0.4,0.4-0.4,1.1,0,1.5c0.4,0.4,1.1,0.4,1.5,0c4.5-4.5,10.5-7,16.8-7c6.4,0,12.3,2.5,16.8,7
					c0.4,0.4,1.1,0.4,1.5,0c0.2-0.2,0.3-0.5,0.3-0.7c0-0.3-0.1-0.5-0.3-0.7c-4.9-4.9-11.4-7.6-18.3-7.6S26,491,21.1,495.9
					L21.1,495.9z M21.1,495.9"/>
			</g>
		</g>
		<g>
			<path class="st2" d="M678.4,636.4H188.3c-0.8,0-1.5-0.7-1.5-1.5c0-0.8,0.7-1.5,1.5-1.5h490.1c0.8,0,1.5,0.7,1.5,1.5
				C679.9,635.7,679.2,636.4,678.4,636.4z"/>
		</g>
		<g>
			<path class="st2" d="M161.6,636.4h-68c-0.8,0-1.5-0.7-1.5-1.5c0-0.8,0.7-1.5,1.5-1.5h68c0.8,0,1.5,0.7,1.5,1.5
				C163.1,635.7,162.4,636.4,161.6,636.4z"/>
		</g>
		<g>
			<path class="st2" d="M720,636.4h-27.5c-0.8,0-1.5-0.7-1.5-1.5c0-0.8,0.7-1.5,1.5-1.5H720c0.8,0,1.5,0.7,1.5,1.5
				C721.5,635.7,720.8,636.4,720,636.4z"/>
		</g>
		<g>
			<g>
				<path class="st2" d="M283.5,531.5c-4.9,0-8.9-4-8.9-8.9c0-4.9,4-8.9,8.9-8.9c4.9,0,8.9,4,8.9,8.9
					C292.4,527.5,288.4,531.5,283.5,531.5z M283.5,516.7c-3.2,0-5.9,2.6-5.9,5.9c0,3.2,2.6,5.9,5.9,5.9c3.2,0,5.9-2.6,5.9-5.9
					C289.4,519.4,286.8,516.7,283.5,516.7z"/>
			</g>
			<g>
				<path class="st2" d="M311.3,531.5c-4.9,0-8.9-4-8.9-8.9c0-4.9,4-8.9,8.9-8.9s8.9,4,8.9,8.9C320.2,527.5,316.2,531.5,311.3,531.5
					z M311.3,516.7c-3.2,0-5.9,2.6-5.9,5.9c0,3.2,2.6,5.9,5.9,5.9s5.9-2.6,5.9-5.9C317.1,519.4,314.5,516.7,311.3,516.7z"/>
			</g>
			<g>
				<path class="st2" d="M339,531.5c-4.9,0-8.9-4-8.9-8.9c0-4.9,4-8.9,8.9-8.9c4.9,0,8.9,4,8.9,8.9
					C347.9,527.5,343.9,531.5,339,531.5z M339,516.7c-3.2,0-5.9,2.6-5.9,5.9c0,3.2,2.6,5.9,5.9,5.9c3.2,0,5.9-2.6,5.9-5.9
					C344.9,519.4,342.3,516.7,339,516.7z"/>
			</g>
		</g>
		<g>
			<g>
				<path class="st3" d="M509.1,607v8c0,0.7-0.6,1.3-1.3,1.3H505l-1.2,10.6h2.7c0.4,0,0.7,0.2,1,0.4c0.2,0.3,0.4,0.7,0.3,1l-4,31.9
					c-0.1,0.7-0.6,1.2-1.3,1.2h-2.6l-1.4,12.1c-0.1,0.7-0.6,1.2-1.3,1.2H460c-0.7,0-1.2-0.5-1.3-1.2l-1.4-12.1h-2.6
					c-0.7,0-1.2-0.5-1.3-1.2l-4-31.9c0-0.4,0.1-0.8,0.3-1c0.2-0.3,0.6-0.4,1-0.4h2.7l-1.2-10.6H448c-0.7,0-1.3-0.6-1.3-1.3v-8
					c0-0.7,0.6-1.3,1.3-1.3h4.3l2.4-9.6c0.1-0.6,0.7-1,1.3-1h45.2c0.6,0,1.1,0.4,1.3,1l2.4,9.6h3C508.5,605.7,509.1,606.3,509.1,607
					z"/>
			</g>
			<g>
				<g>
					<path class="st2" d="M500,660.3l-0.1,1.2l-1.4,12.1c-0.1,0.7-0.6,1.2-1.3,1.2H460c-0.7,0-1.2-0.5-1.3-1.2l-1.4-12.1l-0.1-1.2
						l2.6-0.3l0.2,1.5l1.2,10.6H496l1.2-10.6l0.2-1.5L500,660.3z"/>
				</g>
				<g>
					<path class="st2" d="M505.1,615.1l-0.1,1.2l-1.2,10.6l-0.2,1.5l-2.6-0.3l0.1-1.2l1.2-10.6h-47.5l1.2,10.6l0.1,1.2l-2.6,0.3
						l-0.2-1.5l-1.2-10.6l-0.1-1.2c0-0.4,0.1-0.7,0.3-1c0.2-0.3,0.6-0.4,1-0.4h50.5c0.4,0,0.7,0.2,1,0.4
						C505,614.4,505.2,614.8,505.1,615.1z"/>
				</g>
				<g>
					<path class="st2" d="M507.8,605.7H448c-0.7,0-1.3,0.6-1.3,1.3v8c0,0.7,0.6,1.3,1.3,1.3h59.8c0.7,0,1.3-0.6,1.3-1.3v-8
						C509.1,606.3,508.5,605.7,507.8,605.7z M506.5,613.6h-57.1v-5.3h57.1V613.6z"/>
				</g>
				<g>
					<path class="st2" d="M505.1,606.7l-0.2-1l-2.4-9.6c-0.1-0.6-0.7-1-1.3-1H456c-0.6,0-1.1,0.4-1.3,1l-2.4,9.6l-0.2,1
						c-0.1,0.4,0,0.8,0.2,1.1c0.2,0.3,0.6,0.5,1,0.5h50.5c0.4,0,0.8-0.2,1-0.5C505.1,607.5,505.2,607.1,505.1,606.7z M455,605.7l2-8
						h43.1l2,8H455z"/>
				</g>
				<g>
					<path class="st2" d="M507.5,627.4c-0.2-0.3-0.6-0.4-1-0.4h-55.8c-0.4,0-0.7,0.2-1,0.4c-0.2,0.3-0.4,0.7-0.3,1l4,31.9
						c0.1,0.7,0.6,1.2,1.3,1.2h47.8c0.7,0,1.2-0.5,1.3-1.2l4-31.9C507.8,628,507.7,627.7,507.5,627.4z M501.3,658.8h-45.5l-3.7-29.2
						h52.8L501.3,658.8z"/>
				</g>
				<g>
					<path class="st2" d="M478.6,634.9c-5.1,0-9.3,4.2-9.3,9.3c0,5.1,4.2,9.3,9.3,9.3c5.1,0,9.3-4.2,9.3-9.3
						C487.9,639.1,483.7,634.9,478.6,634.9z M478.6,650.8c-3.7,0-6.6-3-6.6-6.6c0-3.7,3-6.6,6.6-6.6c3.7,0,6.6,3,6.6,6.6
						C485.2,647.9,482.2,650.8,478.6,650.8z"/>
				</g>
			</g>
		</g>
		<g>
			<g>
				
					<ellipse transform="matrix(0.7071 -0.7071 0.7071 0.7071 -180.1376 560.1182)" class="st5" cx="586.1" cy="497.5" rx="52.2" ry="52.2"/>
				<path class="st4" d="M586.1,551.7c-29.9,0-54.2-24.3-54.2-54.2c0-29.9,24.3-54.2,54.2-54.2c29.9,0,54.2,24.3,54.2,54.2
					C640.2,527.4,615.9,551.7,586.1,551.7z M586.1,447.2c-27.7,0-50.3,22.6-50.3,50.3c0,27.7,22.6,50.3,50.3,50.3
					c27.7,0,50.3-22.6,50.3-50.3C636.4,469.8,613.8,447.2,586.1,447.2z"/>
			</g>
			<g>
				<g>
					<path class="st5" d="M621.4,491.7l-27.3-27.3V480c-27.3,3.9-39,23.4-42.9,42.9c9.8-13.7,23.4-19.9,42.9-19.9v16L621.4,491.7z
						 M612.4,496.7"/>
					<path class="st4" d="M551.2,524.9c-0.3,0-0.5-0.1-0.8-0.2c-0.9-0.4-1.4-1.3-1.2-2.2c4.9-24.7,20.2-40.4,42.9-44.3v-13.9
						c0-0.8,0.5-1.5,1.2-1.8c0.7-0.3,1.6-0.1,2.2,0.4l27.3,27.3c0.8,0.8,0.8,2,0,2.8l-27.3,27.3c-0.6,0.6-1.4,0.7-2.2,0.4
						c-0.7-0.3-1.2-1-1.2-1.8v-14c-17.8,0.4-30.4,6.5-39.3,19C552.4,524.6,551.8,524.9,551.2,524.9z M596.1,469.2V480
						c0,1-0.7,1.8-1.7,2c-23.5,3.4-34.2,18.4-39.1,33c9.5-9.4,22.1-13.9,38.8-13.9c1.1,0,2,0.9,2,2v11.2l22.5-22.5L596.1,469.2z"/>
				</g>
			</g>
		</g>
		<g>
			<g>
				<path class="st3" d="M615.6,561.2v30.7c0,12.9-10.5,23.5-23.5,23.5c-7.5,0-14.5-2.9-19.8-8.2l-23.3-23.3c-1.3-1.3-2-3-2-4.9
					c0-3.8,3.1-6.9,6.9-6.9c1.7,0,3.3,0.4,4.8,1.1l9.9,5V536c0-4,3.2-7.2,7.2-7.2c4,0,7.2,3.2,7.2,7.2v11.8c1.1-0.6,2.3-1,3.6-1
					c3.1,0,5.8,2,6.8,4.8c1.2-0.8,2.5-1.2,4-1.2c3.1,0,5.8,2,6.8,4.8c1.1-0.8,2.5-1.2,4-1.2C612.4,554,615.6,557.2,615.6,561.2z"/>
			</g>
			<g>
				<g>
					<path class="st2" d="M608.4,554c-1.5,0-2.9,0.5-4,1.2c-1-2.8-3.7-4.8-6.8-4.8c-1.5,0-2.9,0.5-4,1.2c-1-2.8-3.7-4.8-6.8-4.8
						c-1.3,0-2.6,0.4-3.6,1V536c0-4-3.2-7.2-7.2-7.2c-4,0-7.2,3.2-7.2,7.2v42.2l-9.9-5c-1.5-0.8-3.2-1.1-4.8-1.1
						c-3.8,0-6.9,3.1-6.9,6.9c0,1.9,0.7,3.6,2,4.9l23.3,23.3c5.3,5.3,12.3,8.2,19.8,8.2c12.9,0,23.5-10.5,23.5-23.5v-30.7
						C615.6,557.2,612.4,554,608.4,554z M612,591.9c0,11-8.9,19.9-19.9,19.9c-6.5,0-12.6-2.5-17.2-7.1l-23.3-23.3
						c-0.6-0.6-1-1.4-1-2.3c0-1.8,1.5-3.3,3.3-3.3c1.1,0,2.2,0.3,3.2,0.8l12.5,6.3c0.6,0.3,1.2,0.2,1.8-0.1c0.5-0.3,0.9-0.9,0.9-1.5
						V536c0-2,1.6-3.6,3.6-3.6c2,0,3.6,1.6,3.6,3.6v34.3c0,1,0.8,1.8,1.8,1.8c1,0,1.8-0.8,1.8-1.8V554c0-2,1.6-3.6,3.6-3.6
						c2,0,3.6,1.6,3.6,3.6v16.2c0,1,0.8,1.8,1.8,1.8c1,0,1.8-0.8,1.8-1.8v-12.6c0-2,1.6-3.6,3.6-3.6c2,0,3.6,1.6,3.6,3.6v12.6
						c0,1,0.8,1.8,1.8,1.8c1,0,1.8-0.8,1.8-1.8v-9c0-2,1.6-3.6,3.6-3.6c2,0,3.6,1.6,3.6,3.6V591.9z"/>
				</g>
			</g>
		</g>
		<g>
			<path class="st5" d="M763.3,540.8h-79.1c-9.6,0-17.4-7.8-17.4-17.4v-57.2c0-9.6,7.8-17.4,17.4-17.4h79.1
				c9.6,0,17.4,7.8,17.4,17.4v57.2C780.7,533.1,772.9,540.8,763.3,540.8z"/>
			<path class="st2" d="M763.3,542.8h-79.1c-10.7,0-19.4-8.7-19.4-19.4v-57.2c0-10.7,8.7-19.4,19.4-19.4h79.1
				c10.7,0,19.4,8.7,19.4,19.4v57.2C782.7,534.1,774,542.8,763.3,542.8z M684.3,450.9c-8.5,0-15.4,6.9-15.4,15.4v57.2
				c0,8.5,6.9,15.4,15.4,15.4h79.1c8.5,0,15.4-6.9,15.4-15.4v-57.2c0-8.5-6.9-15.4-15.4-15.4H684.3z"/>
		</g>
		<g>
			<path class="st3" d="M763.3,458.9h-79.1c-4.1,0-7.4,3.3-7.4,7.4v57.2c0,4.1,3.3,7.4,7.4,7.4h5.7c1,9.7-2.2,19.8-8.6,27
				c9-0.2,17.6-5.1,22.9-12.3c3.2-4.3,5.3-9.4,6.2-14.7h52.8c4.1,0,7.4-3.3,7.4-7.4v-57.2C770.7,462.2,767.4,458.9,763.3,458.9z"/>
			<path class="st2" d="M681.3,559.9c-0.8,0-1.5-0.5-1.8-1.2c-0.3-0.7-0.2-1.6,0.3-2.2c5.6-6.3,8.7-15.1,8.3-23.7h-3.9
				c-5.2,0-9.4-4.2-9.4-9.4v-57.2c0-5.2,4.2-9.4,9.4-9.4h79.1c5.2,0,9.4,4.2,9.4,9.4v57.2c0,5.2-4.2,9.4-9.4,9.4h-51.2
				c-1.2,5.1-3.3,9.9-6.3,13.9C700,554.7,690.8,559.6,681.3,559.9C681.4,559.9,681.4,559.9,681.3,559.9z M684.3,460.9
				c-3,0-5.4,2.4-5.4,5.4v57.2c0,3,2.4,5.4,5.4,5.4h5.7c1,0,1.9,0.8,2,1.8c0.9,8.7-1.4,17.6-6.2,24.7c6.5-1.4,12.7-5.4,16.8-11
				c2.9-3.9,4.9-8.7,5.9-13.9c0.2-0.9,1-1.6,2-1.6h52.8c3,0,5.4-2.4,5.4-5.4v-57.2c0-3-2.4-5.4-5.4-5.4H684.3z"/>
		</g>
		<g>
			<g>
				<path class="st2" d="M724.2,480.7h-33c-1.1,0-2-0.9-2-2s0.9-2,2-2h33c1.1,0,2,0.9,2,2S725.3,480.7,724.2,480.7z"/>
			</g>
			<g>
				<path class="st2" d="M755.2,495.7h-64c-1.1,0-2-0.9-2-2s0.9-2,2-2h64c1.1,0,2,0.9,2,2S756.3,495.7,755.2,495.7z"/>
			</g>
			<g>
				<path class="st2" d="M755.2,510.7h-64c-1.1,0-2-0.9-2-2s0.9-2,2-2h64c1.1,0,2,0.9,2,2S756.3,510.7,755.2,510.7z"/>
			</g>
		</g>
		<g>
			<g>
				<path class="st4" d="M66.7,342.2c-4.4,0-8-3.6-8-8c0-4.4,3.6-8,8-8s8,3.6,8,8C74.7,338.6,71.1,342.2,66.7,342.2z M66.7,329.2
					c-2.7,0-5,2.2-5,5c0,2.7,2.2,5,5,5c2.7,0,5-2.2,5-5C71.7,331.4,69.5,329.2,66.7,329.2z"/>
			</g>
			<g>
				<path class="st2" d="M168.2,379.7c-4.4,0-8-3.6-8-8c0-4.4,3.6-8,8-8s8,3.6,8,8C176.2,376.1,172.6,379.7,168.2,379.7z
					 M168.2,366.7c-2.7,0-5,2.2-5,5c0,2.7,2.2,5,5,5s5-2.2,5-5C173.2,368.9,171,366.7,168.2,366.7z"/>
			</g>
			<g>
				<path class="st2" d="M97.2,414.7c-4.4,0-8-3.6-8-8c0-4.4,3.6-8,8-8c4.4,0,8,3.6,8,8C105.2,411.1,101.6,414.7,97.2,414.7z
					 M97.2,401.7c-2.7,0-5,2.2-5,5c0,2.7,2.2,5,5,5c2.7,0,5-2.2,5-5C102.2,403.9,100,401.7,97.2,401.7z"/>
			</g>
		</g>
		<g>
			<path class="st2" d="M669.7,224.2c-4.4,0-8-3.6-8-8c0-4.4,3.6-8,8-8c4.4,0,8,3.6,8,8C677.7,220.6,674.1,224.2,669.7,224.2z
				 M669.7,211.2c-2.7,0-5,2.2-5,5c0,2.7,2.2,5,5,5s5-2.2,5-5C674.7,213.4,672.5,211.2,669.7,211.2z"/>
		</g>
		<g>
			<path class="st4" d="M771.2,261.7c-4.4,0-8-3.6-8-8c0-4.4,3.6-8,8-8c4.4,0,8,3.6,8,8C779.2,258.1,775.6,261.7,771.2,261.7z
				 M771.2,248.7c-2.7,0-5,2.2-5,5c0,2.7,2.2,5,5,5s5-2.2,5-5C776.2,250.9,774,248.7,771.2,248.7z"/>
		</g>
		<g>
			<path class="st4" d="M741.2,645.7c-4.4,0-8-3.6-8-8c0-4.4,3.6-8,8-8c4.4,0,8,3.6,8,8C749.2,642.1,745.6,645.7,741.2,645.7z
				 M741.2,632.7c-2.7,0-5,2.2-5,5s2.2,5,5,5s5-2.2,5-5S744,632.7,741.2,632.7z"/>
		</g>
		<g>
			<path class="st2" d="M700.2,296.7c-4.4,0-8-3.6-8-8c0-4.4,3.6-8,8-8c4.4,0,8,3.6,8,8C708.2,293.1,704.6,296.7,700.2,296.7z
				 M700.2,283.7c-2.7,0-5,2.2-5,5c0,2.7,2.2,5,5,5s5-2.2,5-5C705.2,285.9,703,283.7,700.2,283.7z"/>
		</g>
		<g>
			<path class="st2" d="M113.2,189.7c-4.4,0-8-3.6-8-8c0-4.4,3.6-8,8-8s8,3.6,8,8C121.2,186.1,117.6,189.7,113.2,189.7z
				 M113.2,176.7c-2.7,0-5,2.2-5,5c0,2.7,2.2,5,5,5c2.7,0,5-2.2,5-5C118.2,178.9,116,176.7,113.2,176.7z"/>
		</g>
		<g>
			<path class="st4" d="M297.2,430.7c-4.4,0-8-3.6-8-8c0-4.4,3.6-8,8-8s8,3.6,8,8C305.2,427.1,301.6,430.7,297.2,430.7z
				 M297.2,417.7c-2.7,0-5,2.2-5,5c0,2.7,2.2,5,5,5c2.7,0,5-2.2,5-5C302.2,419.9,300,417.7,297.2,417.7z"/>
		</g>
		<g>
			<path class="st2" d="M735.2,401.7c-4.4,0-8-3.6-8-8c0-4.4,3.6-8,8-8c4.4,0,8,3.6,8,8C743.2,398.1,739.6,401.7,735.2,401.7z
				 M735.2,388.7c-2.7,0-5,2.2-5,5c0,2.7,2.2,5,5,5s5-2.2,5-5C740.2,390.9,738,388.7,735.2,388.7z"/>
		</g>
		<g>
			<path class="st2" d="M457.2,423.7c-4.4,0-8-3.6-8-8c0-4.4,3.6-8,8-8c4.4,0,8,3.6,8,8C465.2,420.1,461.6,423.7,457.2,423.7z
				 M457.2,410.7c-2.7,0-5,2.2-5,5c0,2.7,2.2,5,5,5c2.7,0,5-2.2,5-5C462.2,412.9,460,410.7,457.2,410.7z"/>
		</g>
	</g>
</g>
<text transform="matrix(1 0 0 1 224.7124 228.4612)"><tspan x="0" y="0" class="st2 st6 st7">404</tspan><tspan x="-88.7" y="92.1" class="st2 st6 st8">Page not found</tspan></text>
</svg>
