<?xml version="1.0" standalone="no"?>
<!DOCTYPE svg PUBLIC "-//W3C//DTD SVG 20010904//EN"
 "http://www.w3.org/TR/2001/REC-SVG-20010904/DTD/svg10.dtd">
<svg version="1.0" xmlns="http://www.w3.org/2000/svg"
 width="700.000000pt" height="700.000000pt" viewBox="0 0 700.000000 700.000000"
 preserveAspectRatio="xMidYMid meet">
<metadata>
Created by potrace 1.11, written by Peter Selinger 2001-2013
</metadata>
<g transform="translate(0.000000,700.000000) scale(0.100000,-0.100000)"
fill="#000000" stroke="none">
<path d="M1840 6211 c-19 -10 -45 -36 -57 -57 l-23 -39 0 -1996 0 -1996 23
-43 c34 -65 71 -80 193 -80 111 0 143 13 188 73 l21 28 3 2003 2 2003 -23 43
c-34 65 -71 80 -192 80 -78 0 -108 -4 -135 -19z"/>
<path d="M4920 6211 c-19 -10 -45 -36 -57 -57 l-23 -39 3 -2007 2 -2007 21
-28 c45 -60 77 -73 187 -73 121 0 165 19 197 85 20 41 20 62 20 2032 l0 1990
-23 43 c-34 65 -71 80 -192 80 -78 0 -108 -4 -135 -19z"/>
<path d="M2610 5651 c-19 -10 -45 -36 -57 -57 l-23 -39 0 -1900 0 -1900 23
-39 c34 -60 74 -76 192 -76 118 0 158 16 192 76 l23 39 0 1896 0 1896 -23 43
c-34 65 -71 80 -192 80 -78 0 -108 -4 -135 -19z"/>
<path d="M4150 5651 c-19 -10 -45 -36 -57 -57 l-23 -39 0 -1896 0 -1896 23
-43 c34 -65 71 -80 192 -80 121 0 158 15 192 80 l23 43 0 1892 0 1892 -23 43
c-34 65 -71 80 -192 80 -78 0 -108 -4 -135 -19z"/>
<path d="M1070 5551 c-19 -10 -45 -36 -57 -57 l-23 -39 0 -1735 0 -1735 23
-39 c36 -65 75 -81 192 -81 120 0 160 19 194 89 21 42 21 43 21 1771 l0 1728
-25 42 c-35 61 -72 75 -192 75 -77 0 -106 -4 -133 -19z"/>
<path d="M5690 5551 c-19 -10 -45 -36 -57 -57 l-23 -39 0 -1733 c0 -1704 0
-1733 20 -1771 11 -22 36 -50 57 -62 33 -21 50 -24 138 -24 88 0 105 3 138 24
21 12 46 40 57 62 20 38 20 67 20 1767 l0 1729 -23 43 c-34 65 -71 80 -192 80
-78 0 -108 -4 -135 -19z"/>
<path d="M3380 5198 c-18 -13 -43 -36 -54 -51 l-21 -28 0 -2144 0 -2144 21
-27 c46 -62 66 -69 188 -69 109 0 114 1 150 29 72 54 66 -128 64 2225 l-3
2130 -21 28 c-45 60 -77 73 -189 73 -89 0 -106 -3 -135 -22z"/>
<path d="M292 5169 c-18 -12 -42 -39 -52 -60 -20 -38 -20 -72 -20 -1932 l0
-1894 23 -43 c36 -68 71 -82 202 -78 126 3 151 15 185 84 20 40 20 56 20 1935
l0 1894 -23 39 c-35 61 -73 76 -197 76 -90 0 -110 -3 -138 -21z"/>
<path d="M6449 5167 c-19 -12 -42 -38 -51 -57 -17 -33 -18 -146 -18 -1934 l0
-1899 25 -42 c35 -61 72 -75 193 -75 109 0 141 13 186 73 l21 28 0 1914 0
1914 -21 28 c-45 61 -77 73 -194 73 -95 0 -111 -3 -141 -23z"/>
</g>
</svg>
